<svg width="347" height="68" viewBox="0 0 347 68" fill="none" xmlns="http://www.w3.org/2000/svg">
<path d="M21.104 0.239998C22.5973 0.239998 23.9627 0.474664 25.2 0.943996C26.48 1.37067 27.568 1.84 28.464 2.352C29.5307 2.94933 30.4693 3.632 31.28 4.4C31.6213 3.84533 31.984 3.35466 32.368 2.928C32.7947 2.45867 33.1787 2.07467 33.52 1.776C33.9467 1.43466 34.3733 1.136 34.8 0.879997H36.4V13.04H33.84C33.2427 10.992 32.4107 9.136 31.344 7.472C30.448 6.064 29.2533 4.784 27.76 3.632C26.2667 2.43733 24.4533 1.84 22.32 1.84C21.04 1.84 19.7813 2.20266 18.544 2.928C17.3067 3.61067 16.1973 4.80533 15.216 6.512C14.2773 8.176 13.5093 10.416 12.912 13.232C12.3573 16.0053 12.08 19.4613 12.08 23.6C12.08 27.7813 12.3787 31.2587 12.976 34.032C13.5733 36.8053 14.4053 39.0453 15.472 40.752C16.5387 42.416 17.7973 43.6107 19.248 44.336C20.6987 45.0187 22.256 45.36 23.92 45.36C25.456 45.36 26.928 45.04 28.336 44.4C29.744 43.7173 31.0027 42.8213 32.112 41.712C33.2213 40.56 34.096 39.2587 34.736 37.808C35.4187 36.3573 35.76 34.8213 35.76 33.2H37.36C37.36 35.0347 36.976 36.784 36.208 38.448C35.4827 40.112 34.4587 41.584 33.136 42.864C31.8133 44.1013 30.256 45.104 28.464 45.872C26.672 46.5973 24.7307 46.96 22.64 46.96C19.2693 46.96 16.24 46.448 13.552 45.424C10.864 44.4 8.58133 42.9067 6.704 40.944C4.82667 38.9387 3.376 36.4853 2.352 33.584C1.37067 30.6827 0.88 27.3547 0.88 23.6C0.88 19.8453 1.37067 16.5173 2.352 13.616C3.33333 10.7147 4.72 8.28267 6.512 6.32C8.304 4.31466 10.4373 2.8 12.912 1.776C15.3867 0.751998 18.1173 0.239998 21.104 0.239998ZM54.665 30.96C54.409 31.5147 54.1957 32.1547 54.025 32.88C53.8543 33.4773 53.705 34.1813 53.577 34.992C53.449 35.8027 53.385 36.6987 53.385 37.68C53.385 40.24 53.769 42.0533 54.537 43.12C55.3477 44.1867 56.2437 44.72 57.225 44.72C58.2063 44.72 59.0383 44.464 59.721 43.952C60.4463 43.3973 61.0437 42.8 61.513 42.16C62.0677 41.392 62.5583 40.5387 62.985 39.6V30.32C62.0037 30.32 61.0223 30.3627 60.041 30.448C59.0597 30.4907 58.1637 30.5547 57.353 30.64C56.4143 30.768 55.5183 30.8747 54.665 30.96ZM57.225 13.04C59.785 13.04 62.0463 13.3813 64.009 14.064C66.0143 14.7467 67.6997 15.7067 69.065 16.944C70.4303 18.1387 71.4543 19.5893 72.137 21.296C72.8623 22.96 73.225 24.7947 73.225 26.8V44.08L77.065 45.04V46H71.305C69.769 46 68.5317 45.7653 67.593 45.296C66.6543 44.784 65.9077 44.2293 65.353 43.632C64.713 42.9067 64.2437 42.096 63.945 41.2C63.3903 42.3093 62.6863 43.2693 61.833 44.08C61.1077 44.8053 60.1477 45.4667 58.953 46.064C57.7583 46.6613 56.329 46.96 54.665 46.96C52.6597 46.96 50.9103 46.7253 49.417 46.256C47.9663 45.8293 46.7503 45.232 45.769 44.464C44.7877 43.6533 44.041 42.736 43.529 41.712C43.0597 40.6453 42.825 39.5147 42.825 38.32C42.825 37.3387 42.9317 36.4427 43.145 35.632C43.3583 34.7787 43.6143 34.032 43.913 33.392C44.2543 32.624 44.6383 31.92 45.065 31.28C46.857 30.8533 48.7557 30.4693 50.761 30.128C52.4677 29.8293 54.3877 29.552 56.521 29.296C58.6543 28.9973 60.809 28.8053 62.985 28.72V26.8C62.985 24.3253 62.8143 22.2773 62.473 20.656C62.1743 19.0347 61.7263 17.7547 61.129 16.816C60.5317 15.8773 59.785 15.2373 58.889 14.896C58.0357 14.512 57.0543 14.32 55.945 14.32C55.4757 14.32 55.049 14.3627 54.665 14.448C54.281 14.4907 53.9397 14.5547 53.641 14.64C53.2997 14.768 53.001 14.8747 52.745 14.96V24.56C52.4463 24.6453 52.169 24.7093 51.913 24.752C51.657 24.7947 51.3797 24.8373 51.081 24.88C50.825 24.88 50.5263 24.88 50.185 24.88C48.7343 24.88 47.561 24.4533 46.665 23.6C45.8117 22.704 45.385 21.5307 45.385 20.08C45.385 19.184 45.5983 18.3307 46.025 17.52C46.4943 16.6667 47.1983 15.92 48.137 15.28C49.1183 14.5973 50.3557 14.064 51.849 13.68C53.3423 13.2533 55.1343 13.04 57.225 13.04ZM94.375 42.48C94.8017 42.9493 95.271 43.376 95.783 43.76C96.2523 44.1013 96.7643 44.4 97.319 44.656C97.9163 44.912 98.535 45.04 99.175 45.04C99.9857 45.04 100.732 44.848 101.415 44.464C102.14 44.0373 102.759 43.2907 103.271 42.224C103.783 41.1147 104.188 39.5787 104.487 37.616C104.786 35.6533 104.935 33.1147 104.935 30C104.935 26.9707 104.786 24.496 104.487 22.576C104.188 20.656 103.804 19.1627 103.335 18.096C102.908 16.9867 102.396 16.24 101.799 15.856C101.244 15.472 100.69 15.28 100.135 15.28C99.1537 15.28 98.3003 15.5573 97.575 16.112C96.8497 16.624 96.2523 17.2 95.783 17.84C95.2283 18.608 94.759 19.4613 94.375 20.4V42.48ZM84.135 15.92L80.295 14.96V14H86.055C87.5483 14 88.7643 14.256 89.703 14.768C90.6843 15.28 91.4523 15.8347 92.007 16.432C92.647 17.1573 93.1163 17.9467 93.415 18.8C93.9697 17.7333 94.6737 16.7733 95.527 15.92C96.2523 15.1947 97.191 14.5333 98.343 13.936C99.5377 13.3387 100.988 13.04 102.695 13.04C104.53 13.04 106.236 13.4027 107.815 14.128C109.436 14.8533 110.823 15.92 111.975 17.328C113.17 18.736 114.108 20.5067 114.791 22.64C115.474 24.7307 115.815 27.184 115.815 30C115.815 32.816 115.474 35.2907 114.791 37.424C114.108 39.5147 113.148 41.264 111.911 42.672C110.674 44.08 109.18 45.1467 107.431 45.872C105.724 46.5973 103.826 46.96 101.735 46.96C100.626 46.96 99.6017 46.832 98.663 46.576C97.767 46.32 96.999 46.0213 96.359 45.68C95.591 45.296 94.9297 44.8693 94.375 44.4V56.88L98.215 57.84V58.8H80.295V57.84L84.135 56.88V15.92ZM127.655 15.6C127.655 17.136 127.42 18.5013 126.951 19.696C126.524 20.848 126.055 21.8507 125.543 22.704C124.946 23.6853 124.263 24.5173 123.495 25.2H121.575V14H150.695V15.6L132.455 44.4H144.615C144.615 42.9067 144.828 41.5627 145.255 40.368C145.682 39.1733 146.151 38.1493 146.663 37.296C147.26 36.3147 147.964 35.4827 148.775 34.8H150.695V46H120.935V44.4L139.175 15.6H127.655ZM156.45 2.16V1.2H174.69V2.16L170.85 3.12V22.96H184.61V3.12L180.77 2.16V1.2H199.01V2.16L195.17 3.12V44.08L199.01 45.04V46H180.77V45.04L184.61 44.08V24.56H170.85V44.08L174.69 45.04V46H156.45V45.04L160.29 44.08V3.12L156.45 2.16ZM227.788 25.52C229.238 25.5627 230.625 25.7973 231.948 26.224C233.057 26.5653 234.188 27.1413 235.34 27.952C236.492 28.72 237.388 29.8293 238.028 31.28L243.788 44.08L246.988 45.04V46H238.028C236.108 46 234.529 45.5093 233.292 44.528C232.054 43.504 231.073 42.1813 230.348 40.56L223.948 26.16H219.788V44.08L224.268 45.04V46H205.388V45.04L209.228 44.08V3.12L205.388 2.16V1.2H222.348C226.188 1.2 229.409 1.52 232.012 2.16C234.614 2.75733 236.705 3.61067 238.284 4.72C239.905 5.78667 241.057 7.088 241.74 8.624C242.465 10.16 242.828 11.8453 242.828 13.68C242.828 15.1307 242.614 16.4107 242.188 17.52C241.761 18.5867 241.185 19.5467 240.46 20.4C239.777 21.2107 238.966 21.8933 238.028 22.448C237.132 23.0027 236.214 23.4507 235.276 23.792C233.057 24.6453 230.561 25.1147 227.788 25.2V25.52ZM222.348 24.56C225.249 24.56 227.574 23.6427 229.324 21.808C231.073 19.9307 231.948 17.2213 231.948 13.68C231.948 10.1387 231.073 7.45067 229.324 5.616C227.574 3.73867 225.249 2.8 222.348 2.8H219.788V24.56H222.348ZM306.84 1.2V2.16L303 3.12V44.08L306.84 45.04V46H288.6V45.04L292.44 44.08V9.2L277.4 46.64H275.48L255.96 9.2V43.12L261.08 45.04V46H248.92V45.04L254.04 43.12V3.12L250.2 2.16V1.2H258.2C259.395 1.2 260.44 1.34933 261.336 1.648C262.232 1.904 263.021 2.26666 263.704 2.736C264.387 3.20533 264.963 3.78133 265.432 4.464C265.944 5.104 266.413 5.82933 266.84 6.64L280.792 33.328L291.48 6.64C291.821 5.744 292.205 4.976 292.632 4.336C293.101 3.65333 293.656 3.07733 294.296 2.608C294.936 2.13867 295.725 1.79733 296.664 1.584C297.603 1.328 298.755 1.2 300.12 1.2H306.84ZM327.663 45.36C330.095 45.36 332.036 44.6347 333.487 43.184C334.937 41.7333 335.663 39.792 335.663 37.36C335.663 35.696 335.087 34.2667 333.935 33.072C332.825 31.8347 331.439 30.6827 329.775 29.616C328.111 28.5493 326.276 27.4827 324.271 26.416C322.308 25.3493 320.495 24.1333 318.831 22.768C317.167 21.4027 315.759 19.824 314.607 18.032C313.497 16.1973 312.943 14 312.943 11.44C312.943 9.904 313.263 8.47466 313.903 7.152C314.543 5.78666 315.503 4.592 316.783 3.568C318.105 2.544 319.748 1.73333 321.711 1.136C323.673 0.538664 325.977 0.239998 328.623 0.239998C330.116 0.239998 331.503 0.474664 332.783 0.943996C334.063 1.37067 335.151 1.84 336.047 2.352C337.113 2.94933 338.052 3.632 338.863 4.4C339.204 3.84533 339.567 3.35466 339.951 2.928C340.377 2.45867 340.761 2.07467 341.103 1.776C341.529 1.43466 341.956 1.136 342.382 0.879997H343.983V13.04H341.423C340.825 10.992 339.993 9.136 338.927 7.472C338.031 6.064 336.836 4.784 335.343 3.632C333.849 2.43733 332.036 1.84 329.903 1.84C329.092 1.84 328.324 2.01066 327.599 2.352C326.873 2.69333 326.233 3.184 325.679 3.824C325.124 4.42133 324.676 5.168 324.335 6.064C323.993 6.91733 323.823 7.856 323.823 8.88C323.823 10.7147 324.377 12.2933 325.487 13.616C326.639 14.896 328.047 16.0907 329.711 17.2C331.375 18.3093 333.188 19.3973 335.151 20.464C337.156 21.5307 338.991 22.7253 340.655 24.048C342.319 25.328 343.705 26.8 344.815 28.464C345.967 30.128 346.543 32.1333 346.543 34.48C346.543 36.144 346.18 37.744 345.455 39.28C344.729 40.7733 343.641 42.096 342.191 43.248C340.74 44.4 338.905 45.3173 336.687 46C334.468 46.64 331.887 46.96 328.943 46.96C327.065 46.96 325.423 46.7467 324.015 46.32C322.607 45.8933 321.412 45.424 320.431 44.912C319.279 44.3147 318.276 43.6107 317.423 42.8C317.081 43.3973 316.697 43.9093 316.271 44.336C315.887 44.7627 315.524 45.1253 315.183 45.424C314.756 45.7653 314.329 46.064 313.903 46.32H312.303V34.16H314.863C315.503 36.2507 316.399 38.128 317.551 39.792C318.063 40.5173 318.639 41.2213 319.279 41.904C319.919 42.544 320.644 43.12 321.455 43.632C322.308 44.144 323.247 44.5707 324.271 44.912C325.295 45.2107 326.425 45.36 327.663 45.36ZM160.238 53.28L159.438 53.04V52.8H161.438C161.736 52.8 161.998 52.8373 162.222 52.912C162.446 52.976 162.643 53.0667 162.814 53.184C162.984 53.3013 163.134 53.4453 163.262 53.616C163.39 53.776 163.502 53.9573 163.598 54.16L165.966 58.88L168.398 53.52L167.198 53.04V52.8H170.238V53.04L168.958 53.52L166.158 59.68V63.52L167.118 63.76V64H162.558V63.76L163.518 63.52V59.84L160.238 53.28ZM174.005 63.92C174.186 63.92 174.368 63.8613 174.549 63.744C174.73 63.6267 174.89 63.424 175.029 63.136C175.178 62.8373 175.296 62.4373 175.381 61.936C175.477 61.424 175.525 60.7787 175.525 60C175.525 59.2213 175.477 58.5813 175.381 58.08C175.296 57.568 175.178 57.168 175.029 56.88C174.89 56.5813 174.73 56.3733 174.549 56.256C174.368 56.1387 174.186 56.08 174.005 56.08C173.824 56.08 173.642 56.1387 173.461 56.256C173.28 56.3733 173.114 56.5813 172.965 56.88C172.826 57.168 172.709 57.568 172.613 58.08C172.528 58.5813 172.485 59.2213 172.485 60C172.485 60.7787 172.528 61.424 172.613 61.936C172.709 62.4373 172.826 62.8373 172.965 63.136C173.114 63.424 173.28 63.6267 173.461 63.744C173.642 63.8613 173.824 63.92 174.005 63.92ZM174.005 55.76C174.666 55.76 175.258 55.856 175.781 56.048C176.304 56.24 176.746 56.5227 177.109 56.896C177.482 57.2587 177.765 57.7013 177.957 58.224C178.149 58.7467 178.245 59.3387 178.245 60C178.245 60.6613 178.149 61.2533 177.957 61.776C177.765 62.2987 177.482 62.7467 177.109 63.12C176.746 63.4827 176.304 63.76 175.781 63.952C175.258 64.144 174.666 64.24 174.005 64.24C173.344 64.24 172.752 64.144 172.229 63.952C171.706 63.76 171.258 63.4827 170.885 63.12C170.522 62.7467 170.245 62.2987 170.053 61.776C169.861 61.2533 169.765 60.6613 169.765 60C169.765 59.3387 169.861 58.7467 170.053 58.224C170.245 57.7013 170.522 57.2587 170.885 56.896C171.258 56.5227 171.706 56.24 172.229 56.048C172.752 55.856 173.344 55.76 174.005 55.76ZM181.371 56C182.331 56 182.811 56.48 182.811 57.44V61.6C182.811 61.9627 182.848 62.2773 182.923 62.544C182.997 62.8 183.088 63.0133 183.195 63.184C183.312 63.3547 183.44 63.4827 183.579 63.568C183.728 63.6427 183.872 63.68 184.011 63.68C184.256 63.68 184.464 63.616 184.635 63.488C184.816 63.3493 184.965 63.2 185.083 63.04C185.221 62.848 185.344 62.6347 185.451 62.4V56.48L184.491 56.24V56H188.971V56.24L188.011 56.48V64.08H187.851C187.381 64.08 187.003 64.016 186.715 63.888C186.437 63.7493 186.224 63.6 186.075 63.44C185.893 63.248 185.765 63.0347 185.691 62.8C185.552 63.0773 185.376 63.3173 185.163 63.52C184.981 63.7013 184.741 63.8667 184.443 64.016C184.144 64.1653 183.787 64.24 183.371 64.24C182.912 64.24 182.491 64.1653 182.107 64.016C181.723 63.8667 181.392 63.6693 181.115 63.424C180.848 63.1787 180.635 62.9013 180.475 62.592C180.325 62.272 180.251 61.9413 180.251 61.6V56.48L179.291 56.24V56H181.371ZM195.457 56.32C195.137 56.32 194.849 56.3893 194.593 56.528C194.348 56.656 194.14 56.8 193.969 56.96C193.777 57.152 193.606 57.3653 193.457 57.6V63.52L194.417 63.76V64H189.937V63.76L190.897 63.52V56.48L189.937 56.24V56H191.377C191.75 56 192.054 56.064 192.289 56.192C192.534 56.32 192.726 56.4587 192.865 56.608C193.025 56.7893 193.142 56.9867 193.217 57.2C193.377 56.9653 193.574 56.752 193.809 56.56C194.012 56.4 194.257 56.256 194.545 56.128C194.844 55.9893 195.196 55.92 195.601 55.92C196.177 55.92 196.604 56.0533 196.881 56.32C197.158 56.5867 197.297 56.96 197.297 57.44C197.297 57.8027 197.185 58.096 196.961 58.32C196.748 58.5333 196.46 58.64 196.097 58.64C196.012 58.64 195.926 58.64 195.841 58.64C195.766 58.6293 195.702 58.6187 195.649 58.608C195.574 58.5973 195.51 58.5813 195.457 58.56V56.32ZM207.859 56.88C207.742 56.7627 207.619 56.656 207.491 56.56C207.374 56.4747 207.246 56.4 207.107 56.336C206.969 56.272 206.819 56.24 206.659 56.24C206.457 56.24 206.265 56.2933 206.083 56.4C205.913 56.496 205.763 56.6827 205.635 56.96C205.507 57.2267 205.406 57.6053 205.331 58.096C205.257 58.5867 205.219 59.2213 205.219 60C205.219 60.7573 205.257 61.376 205.331 61.856C205.406 62.336 205.497 62.7147 205.603 62.992C205.721 63.2587 205.849 63.44 205.987 63.536C206.137 63.632 206.281 63.68 206.419 63.68C206.665 63.68 206.873 63.616 207.043 63.488C207.225 63.3493 207.374 63.2 207.491 63.04C207.63 62.848 207.753 62.6347 207.859 62.4V56.88ZM208.979 52.8C209.939 52.8 210.419 53.28 210.419 54.24V63.52L211.379 63.76V64H209.939C209.555 64 209.246 63.9413 209.011 63.824C208.777 63.696 208.59 63.5573 208.451 63.408C208.291 63.2267 208.174 63.024 208.099 62.8C207.961 63.0773 207.785 63.3173 207.571 63.52C207.39 63.7013 207.15 63.8667 206.851 64.016C206.553 64.1653 206.195 64.24 205.779 64.24C205.321 64.24 204.889 64.1493 204.483 63.968C204.089 63.7867 203.742 63.52 203.443 63.168C203.155 62.816 202.926 62.3787 202.755 61.856C202.585 61.3227 202.499 60.704 202.499 60C202.499 59.296 202.585 58.6827 202.755 58.16C202.926 57.6267 203.166 57.184 203.475 56.832C203.785 56.48 204.153 56.2133 204.579 56.032C205.017 55.8507 205.497 55.76 206.019 55.76C206.297 55.76 206.547 55.792 206.771 55.856C207.006 55.92 207.203 55.9947 207.363 56.08C207.555 56.176 207.721 56.2827 207.859 56.4V53.28L206.899 53.04V52.8H208.979ZM213.301 54C213.301 53.8187 213.339 53.648 213.413 53.488C213.488 53.3173 213.584 53.1733 213.701 53.056C213.829 52.928 213.973 52.8267 214.133 52.752C214.304 52.6773 214.48 52.64 214.661 52.64C214.843 52.64 215.013 52.6773 215.173 52.752C215.344 52.8267 215.488 52.928 215.605 53.056C215.733 53.1733 215.835 53.3173 215.909 53.488C215.984 53.648 216.021 53.8187 216.021 54C216.021 54.1813 215.984 54.3573 215.909 54.528C215.835 54.688 215.733 54.832 215.605 54.96C215.488 55.0773 215.344 55.1733 215.173 55.248C215.013 55.3227 214.843 55.36 214.661 55.36C214.48 55.36 214.304 55.3227 214.133 55.248C213.973 55.1733 213.829 55.0773 213.701 54.96C213.584 54.832 213.488 54.688 213.413 54.528C213.339 54.3573 213.301 54.1813 213.301 54ZM214.501 56C215.461 56 215.941 56.48 215.941 57.44V63.52L216.901 63.76V64H212.421V63.76L213.381 63.52V56.48L212.421 56.24V56H214.501ZM221.699 55.92C222.221 55.92 222.691 55.9733 223.107 56.08C223.523 56.1867 223.853 56.32 224.099 56.48C224.184 56.2987 224.296 56.1387 224.435 56C224.552 55.8827 224.707 55.776 224.899 55.68C225.101 55.5733 225.341 55.52 225.619 55.52C225.981 55.52 226.285 55.648 226.531 55.904C226.776 56.1493 226.899 56.4747 226.899 56.88C226.899 57.2 226.813 57.456 226.643 57.648C226.472 57.8293 226.264 57.92 226.019 57.92C225.933 57.92 225.859 57.92 225.795 57.92C225.731 57.9093 225.672 57.8987 225.619 57.888C225.565 57.8773 225.512 57.8613 225.459 57.84V55.92C225.277 55.92 225.123 55.9627 224.995 56.048C224.867 56.1333 224.76 56.224 224.675 56.32C224.568 56.4373 224.483 56.5707 224.419 56.72C224.696 56.9653 224.899 57.2427 225.027 57.552C225.155 57.8613 225.219 58.1973 225.219 58.56C225.219 58.944 225.144 59.296 224.995 59.616C224.856 59.936 224.643 60.2133 224.355 60.448C224.067 60.6827 223.699 60.8693 223.251 61.008C222.813 61.136 222.296 61.2 221.699 61.2C221.293 61.2 220.915 61.1627 220.563 61.088C220.211 61.0133 219.896 60.9173 219.619 60.8C219.501 60.8533 219.395 60.9067 219.299 60.96C219.213 61.0133 219.139 61.072 219.075 61.136C219.011 61.2 218.979 61.2747 218.979 61.36C218.979 61.52 219.059 61.6533 219.219 61.76C219.389 61.8667 219.736 61.92 220.259 61.92H223.299C224.099 61.92 224.723 62.1493 225.171 62.608C225.629 63.0667 225.859 63.7173 225.859 64.56C225.859 64.9653 225.773 65.3387 225.603 65.68C225.443 66.032 225.192 66.336 224.851 66.592C224.509 66.8587 224.067 67.0667 223.523 67.216C222.989 67.3653 222.355 67.44 221.619 67.44C220.861 67.44 220.227 67.3867 219.715 67.28C219.203 67.1733 218.792 67.0347 218.483 66.864C218.173 66.6933 217.949 66.5013 217.811 66.288C217.683 66.0853 217.619 65.8827 217.619 65.68C217.619 65.3173 217.725 65.024 217.939 64.8C218.163 64.5867 218.456 64.48 218.819 64.48C218.915 64.48 219 64.4853 219.075 64.496C219.16 64.5067 219.229 64.5173 219.283 64.528C219.347 64.5387 219.405 64.5493 219.459 64.56V66.8C219.651 66.864 219.853 66.9173 220.067 66.96C220.248 67.0027 220.456 67.04 220.691 67.072C220.936 67.104 221.192 67.12 221.459 67.12C222.163 67.12 222.749 67.0613 223.219 66.944C223.699 66.8373 224.088 66.6933 224.387 66.512C224.685 66.3413 224.899 66.1387 225.027 65.904C225.155 65.68 225.219 65.4453 225.219 65.2C225.219 65.0613 225.187 64.928 225.123 64.8C225.059 64.672 224.952 64.56 224.803 64.464C224.653 64.368 224.456 64.2933 224.211 64.24C223.965 64.1867 223.661 64.16 223.299 64.16H220.259C219.416 64.16 218.792 63.9893 218.387 63.648C217.981 63.296 217.779 62.88 217.779 62.4C217.779 62.08 217.853 61.8133 218.003 61.6C218.163 61.376 218.339 61.1893 218.531 61.04C218.755 60.88 219.011 60.7467 219.299 60.64C218.893 60.3947 218.605 60.1013 218.435 59.76C218.264 59.408 218.179 59.008 218.179 58.56C218.179 58.176 218.248 57.824 218.387 57.504C218.536 57.184 218.755 56.9067 219.043 56.672C219.331 56.4373 219.693 56.256 220.131 56.128C220.579 55.9893 221.101 55.92 221.699 55.92ZM221.699 60.88C221.859 60.88 222.008 60.848 222.147 60.784C222.285 60.7093 222.403 60.5867 222.499 60.416C222.595 60.2347 222.669 59.9947 222.723 59.696C222.787 59.3973 222.819 59.0187 222.819 58.56C222.819 58.1013 222.787 57.7227 222.723 57.424C222.669 57.1253 222.595 56.8907 222.499 56.72C222.403 56.5387 222.285 56.416 222.147 56.352C222.008 56.2773 221.859 56.24 221.699 56.24C221.539 56.24 221.389 56.2773 221.251 56.352C221.112 56.416 220.995 56.5387 220.899 56.72C220.803 56.8907 220.723 57.1253 220.659 57.424C220.605 57.7227 220.579 58.1013 220.579 58.56C220.579 59.0187 220.605 59.3973 220.659 59.696C220.723 59.9947 220.803 60.2347 220.899 60.416C220.995 60.5867 221.112 60.7093 221.251 60.784C221.389 60.848 221.539 60.88 221.699 60.88ZM228.426 54C228.426 53.8187 228.464 53.648 228.538 53.488C228.613 53.3173 228.709 53.1733 228.826 53.056C228.954 52.928 229.098 52.8267 229.258 52.752C229.429 52.6773 229.605 52.64 229.786 52.64C229.968 52.64 230.138 52.6773 230.298 52.752C230.469 52.8267 230.613 52.928 230.73 53.056C230.858 53.1733 230.96 53.3173 231.034 53.488C231.109 53.648 231.146 53.8187 231.146 54C231.146 54.1813 231.109 54.3573 231.034 54.528C230.96 54.688 230.858 54.832 230.73 54.96C230.613 55.0773 230.469 55.1733 230.298 55.248C230.138 55.3227 229.968 55.36 229.786 55.36C229.605 55.36 229.429 55.3227 229.258 55.248C229.098 55.1733 228.954 55.0773 228.826 54.96C228.709 54.832 228.613 54.688 228.538 54.528C228.464 54.3573 228.426 54.1813 228.426 54ZM229.626 56C230.586 56 231.066 56.48 231.066 57.44V63.52L232.026 63.76V64H227.546V63.76L228.506 63.52V56.48L227.546 56.24V56H229.626ZM233.704 55.2C233.704 54.24 234.184 53.76 235.144 53.76H236.264V56H238.504V56.4H236.264V61.28C236.264 61.8027 236.29 62.2293 236.344 62.56C236.408 62.8907 236.488 63.152 236.584 63.344C236.69 63.536 236.818 63.6693 236.968 63.744C237.117 63.808 237.282 63.84 237.464 63.84C237.645 63.84 237.821 63.7973 237.992 63.712C238.162 63.616 238.317 63.4827 238.456 63.312C238.594 63.1307 238.701 62.912 238.776 62.656C238.861 62.4 238.904 62.1013 238.904 61.76H239.304C239.304 62.56 239.101 63.1733 238.696 63.6C238.301 64.0267 237.784 64.24 237.144 64.24C236.6 64.24 236.114 64.1653 235.688 64.016C235.272 63.8667 234.914 63.6587 234.616 63.392C234.317 63.1253 234.088 62.8107 233.928 62.448C233.778 62.0853 233.704 61.696 233.704 61.28V56.4H232.584V56H233.704V55.2ZM243.151 60.24C243.087 60.3787 243.033 60.5387 242.991 60.72C242.948 60.8693 242.911 61.0453 242.879 61.248C242.847 61.4507 242.831 61.6747 242.831 61.92C242.831 62.56 242.927 63.0133 243.119 63.28C243.321 63.5467 243.545 63.68 243.791 63.68C244.036 63.68 244.244 63.616 244.415 63.488C244.596 63.3493 244.745 63.2 244.863 63.04C245.001 62.848 245.124 62.6347 245.231 62.4V60.08C244.985 60.08 244.74 60.0907 244.495 60.112C244.249 60.1227 244.025 60.1387 243.823 60.16C243.588 60.192 243.364 60.2187 243.151 60.24ZM243.791 55.76C244.431 55.76 244.996 55.8453 245.487 56.016C245.988 56.1867 246.409 56.4267 246.751 56.736C247.092 57.0347 247.348 57.3973 247.519 57.824C247.7 58.24 247.791 58.6987 247.791 59.2V63.52L248.751 63.76V64H247.311C246.927 64 246.617 63.9413 246.383 63.824C246.148 63.696 245.961 63.5573 245.823 63.408C245.663 63.2267 245.545 63.024 245.471 62.8C245.332 63.0773 245.156 63.3173 244.943 63.52C244.761 63.7013 244.521 63.8667 244.223 64.016C243.924 64.1653 243.567 64.24 243.151 64.24C242.649 64.24 242.212 64.1813 241.839 64.064C241.476 63.9573 241.172 63.808 240.927 63.616C240.681 63.4133 240.495 63.184 240.367 62.928C240.249 62.6613 240.191 62.3787 240.191 62.08C240.191 61.8347 240.217 61.6107 240.271 61.408C240.324 61.1947 240.388 61.008 240.463 60.848C240.548 60.656 240.644 60.48 240.751 60.32C241.199 60.2133 241.673 60.1173 242.175 60.032C242.601 59.9573 243.081 59.888 243.615 59.824C244.148 59.7493 244.687 59.7013 245.231 59.68V59.2C245.231 58.5813 245.188 58.0693 245.103 57.664C245.028 57.2587 244.916 56.9387 244.767 56.704C244.617 56.4693 244.431 56.3093 244.207 56.224C243.993 56.128 243.748 56.08 243.471 56.08C243.353 56.08 243.247 56.0907 243.151 56.112C243.055 56.1227 242.969 56.1387 242.895 56.16C242.809 56.192 242.735 56.2187 242.671 56.24V58.64C242.596 58.6613 242.527 58.6773 242.463 58.688C242.399 58.6987 242.329 58.7093 242.255 58.72C242.191 58.72 242.116 58.72 242.031 58.72C241.668 58.72 241.375 58.6133 241.151 58.4C240.937 58.176 240.831 57.8827 240.831 57.52C240.831 57.296 240.884 57.0827 240.991 56.88C241.108 56.6667 241.284 56.48 241.519 56.32C241.764 56.1493 242.073 56.016 242.447 55.92C242.82 55.8133 243.268 55.76 243.791 55.76ZM251.798 52.8C252.758 52.8 253.238 53.28 253.238 54.24V63.52L254.198 63.76V64H249.718V63.76L250.678 63.52V53.28L249.718 53.04V52.8H251.798ZM259.56 53.2L258.68 53.04V52.8H260.6C261.208 52.8 261.683 52.9387 262.024 53.216C262.376 53.4827 262.621 53.7973 262.76 54.16L265.176 60.32L266.584 56.192L265.4 53.2L264.52 53.04V52.8H266.44C267.048 52.8 267.523 52.9387 267.864 53.216C268.205 53.4827 268.451 53.7973 268.6 54.16L271.016 60.32L273.32 53.52L272.12 53.04V52.8H275.08V53.04L273.8 53.52L270.2 64.16H269.72L266.84 56.848L264.36 64.16H263.88L259.56 53.2ZM278.849 63.92C279.03 63.92 279.211 63.8613 279.393 63.744C279.574 63.6267 279.734 63.424 279.873 63.136C280.022 62.8373 280.139 62.4373 280.225 61.936C280.321 61.424 280.369 60.7787 280.369 60C280.369 59.2213 280.321 58.5813 280.225 58.08C280.139 57.568 280.022 57.168 279.873 56.88C279.734 56.5813 279.574 56.3733 279.393 56.256C279.211 56.1387 279.03 56.08 278.849 56.08C278.667 56.08 278.486 56.1387 278.305 56.256C278.123 56.3733 277.958 56.5813 277.809 56.88C277.67 57.168 277.553 57.568 277.457 58.08C277.371 58.5813 277.329 59.2213 277.329 60C277.329 60.7787 277.371 61.424 277.457 61.936C277.553 62.4373 277.67 62.8373 277.809 63.136C277.958 63.424 278.123 63.6267 278.305 63.744C278.486 63.8613 278.667 63.92 278.849 63.92ZM278.849 55.76C279.51 55.76 280.102 55.856 280.625 56.048C281.147 56.24 281.59 56.5227 281.953 56.896C282.326 57.2587 282.609 57.7013 282.801 58.224C282.993 58.7467 283.089 59.3387 283.089 60C283.089 60.6613 282.993 61.2533 282.801 61.776C282.609 62.2987 282.326 62.7467 281.953 63.12C281.59 63.4827 281.147 63.76 280.625 63.952C280.102 64.144 279.51 64.24 278.849 64.24C278.187 64.24 277.595 64.144 277.073 63.952C276.55 63.76 276.102 63.4827 275.729 63.12C275.366 62.7467 275.089 62.2987 274.897 61.776C274.705 61.2533 274.609 60.6613 274.609 60C274.609 59.3387 274.705 58.7467 274.897 58.224C275.089 57.7013 275.366 57.2587 275.729 56.896C276.102 56.5227 276.55 56.24 277.073 56.048C277.595 55.856 278.187 55.76 278.849 55.76ZM289.894 56.32C289.574 56.32 289.286 56.3893 289.03 56.528C288.785 56.656 288.577 56.8 288.406 56.96C288.214 57.152 288.044 57.3653 287.894 57.6V63.52L288.854 63.76V64H284.374V63.76L285.334 63.52V56.48L284.374 56.24V56H285.814C286.188 56 286.492 56.064 286.726 56.192C286.972 56.32 287.164 56.4587 287.302 56.608C287.462 56.7893 287.58 56.9867 287.654 57.2C287.814 56.9653 288.012 56.752 288.246 56.56C288.449 56.4 288.694 56.256 288.982 56.128C289.281 55.9893 289.633 55.92 290.038 55.92C290.614 55.92 291.041 56.0533 291.318 56.32C291.596 56.5867 291.734 56.96 291.734 57.44C291.734 57.8027 291.622 58.096 291.398 58.32C291.185 58.5333 290.897 58.64 290.534 58.64C290.449 58.64 290.364 58.64 290.278 58.64C290.204 58.6293 290.14 58.6187 290.086 58.608C290.012 58.5973 289.948 58.5813 289.894 58.56V56.32ZM294.533 52.8C295.493 52.8 295.973 53.28 295.973 54.24V59.84L298.933 56.72L297.733 56.24V56H300.773V56.24L299.493 56.72L297.653 58.64L300.773 63.52L301.573 63.76V64H299.493C299.215 64 298.97 63.968 298.757 63.904C298.543 63.84 298.351 63.7493 298.181 63.632C298.01 63.504 297.855 63.36 297.717 63.2C297.589 63.0293 297.461 62.8427 297.333 62.64L295.973 60.48V63.52L296.933 63.76V64H292.453V63.76L293.413 63.52V53.28L292.453 53.04V52.8H294.533ZM305.25 63.12C305.357 63.2373 305.474 63.344 305.602 63.44C305.719 63.5253 305.847 63.6 305.986 63.664C306.135 63.728 306.29 63.76 306.45 63.76C306.653 63.76 306.839 63.712 307.01 63.616C307.191 63.5093 307.346 63.3227 307.474 63.056C307.602 62.7787 307.703 62.3947 307.778 61.904C307.853 61.4133 307.89 60.7787 307.89 60C307.89 59.2427 307.853 58.624 307.778 58.144C307.703 57.664 307.607 57.2907 307.49 57.024C307.383 56.7467 307.255 56.56 307.106 56.464C306.967 56.368 306.829 56.32 306.69 56.32C306.445 56.32 306.231 56.3893 306.05 56.528C305.869 56.656 305.719 56.8 305.602 56.96C305.463 57.152 305.346 57.3653 305.25 57.6V63.12ZM302.69 56.48L301.73 56.24V56H303.17C303.543 56 303.847 56.064 304.082 56.192C304.327 56.32 304.519 56.4587 304.658 56.608C304.818 56.7893 304.935 56.9867 305.01 57.2C305.149 56.9333 305.325 56.6933 305.538 56.48C305.719 56.2987 305.954 56.1333 306.242 55.984C306.541 55.8347 306.903 55.76 307.33 55.76C307.789 55.76 308.215 55.8507 308.61 56.032C309.015 56.2133 309.362 56.48 309.65 56.832C309.949 57.184 310.183 57.6267 310.354 58.16C310.525 58.6827 310.61 59.296 310.61 60C310.61 60.704 310.525 61.3227 310.354 61.856C310.183 62.3787 309.943 62.816 309.634 63.168C309.325 63.52 308.951 63.7867 308.514 63.968C308.087 64.1493 307.613 64.24 307.09 64.24C306.813 64.24 306.557 64.208 306.322 64.144C306.098 64.08 305.906 64.0053 305.746 63.92C305.554 63.824 305.389 63.7173 305.25 63.6V66.72L306.21 66.96V67.2H301.73V66.96L302.69 66.72V56.48ZM313.97 52.8C314.93 52.8 315.41 53.28 315.41 54.24V63.52L316.37 63.76V64H311.89V63.76L312.85 63.52V53.28L311.89 53.04V52.8H313.97ZM320.448 60.24C320.384 60.3787 320.33 60.5387 320.288 60.72C320.245 60.8693 320.208 61.0453 320.176 61.248C320.144 61.4507 320.128 61.6747 320.128 61.92C320.128 62.56 320.224 63.0133 320.416 63.28C320.618 63.5467 320.842 63.68 321.088 63.68C321.333 63.68 321.541 63.616 321.712 63.488C321.893 63.3493 322.042 63.2 322.16 63.04C322.298 62.848 322.421 62.6347 322.528 62.4V60.08C322.282 60.08 322.037 60.0907 321.792 60.112C321.546 60.1227 321.322 60.1387 321.12 60.16C320.885 60.192 320.661 60.2187 320.448 60.24ZM321.088 55.76C321.728 55.76 322.293 55.8453 322.784 56.016C323.285 56.1867 323.706 56.4267 324.048 56.736C324.389 57.0347 324.645 57.3973 324.816 57.824C324.997 58.24 325.088 58.6987 325.088 59.2V63.52L326.048 63.76V64H324.608C324.224 64 323.914 63.9413 323.68 63.824C323.445 63.696 323.258 63.5573 323.12 63.408C322.96 63.2267 322.842 63.024 322.768 62.8C322.629 63.0773 322.453 63.3173 322.24 63.52C322.058 63.7013 321.818 63.8667 321.52 64.016C321.221 64.1653 320.864 64.24 320.448 64.24C319.946 64.24 319.509 64.1813 319.136 64.064C318.773 63.9573 318.469 63.808 318.224 63.616C317.978 63.4133 317.792 63.184 317.664 62.928C317.546 62.6613 317.488 62.3787 317.488 62.08C317.488 61.8347 317.514 61.6107 317.568 61.408C317.621 61.1947 317.685 61.008 317.76 60.848C317.845 60.656 317.941 60.48 318.048 60.32C318.496 60.2133 318.97 60.1173 319.472 60.032C319.898 59.9573 320.378 59.888 320.911 59.824C321.445 59.7493 321.984 59.7013 322.528 59.68V59.2C322.528 58.5813 322.485 58.0693 322.4 57.664C322.325 57.2587 322.213 56.9387 322.064 56.704C321.914 56.4693 321.728 56.3093 321.504 56.224C321.29 56.128 321.045 56.08 320.768 56.08C320.65 56.08 320.544 56.0907 320.448 56.112C320.352 56.1227 320.266 56.1387 320.192 56.16C320.106 56.192 320.032 56.2187 319.968 56.24V58.64C319.893 58.6613 319.824 58.6773 319.76 58.688C319.696 58.6987 319.626 58.7093 319.552 58.72C319.488 58.72 319.413 58.72 319.328 58.72C318.965 58.72 318.672 58.6133 318.448 58.4C318.234 58.176 318.128 57.8827 318.128 57.52C318.128 57.296 318.181 57.0827 318.288 56.88C318.405 56.6667 318.581 56.48 318.816 56.32C319.061 56.1493 319.37 56.016 319.744 55.92C320.117 55.8133 320.565 55.76 321.088 55.76ZM331.655 56.08C331.378 56.08 331.122 56.1387 330.887 56.256C330.652 56.3733 330.45 56.5813 330.279 56.88C330.108 57.168 329.975 57.568 329.879 58.08C329.783 58.5813 329.735 59.2213 329.735 60C329.735 60.7573 329.783 61.3867 329.879 61.888C329.975 62.3787 330.108 62.768 330.279 63.056C330.45 63.344 330.652 63.5467 330.887 63.664C331.122 63.7813 331.378 63.84 331.655 63.84C331.975 63.84 332.274 63.7813 332.551 63.664C332.839 63.5467 333.084 63.392 333.287 63.2C333.5 62.9973 333.666 62.7733 333.783 62.528C333.911 62.272 333.975 62.016 333.975 61.76H334.375C334.375 62.08 334.3 62.3893 334.151 62.688C334.012 62.9867 333.81 63.2533 333.543 63.488C333.276 63.712 332.956 63.8933 332.583 64.032C332.21 64.1707 331.794 64.24 331.335 64.24C329.97 64.24 328.908 63.8667 328.151 63.12C327.394 62.3627 327.015 61.3227 327.015 60C327.015 58.6773 327.394 57.6427 328.151 56.896C328.908 56.1387 329.97 55.76 331.335 55.76C331.858 55.76 332.306 55.8133 332.679 55.92C333.052 56.016 333.356 56.1493 333.591 56.32C333.836 56.48 334.012 56.6667 334.119 56.88C334.236 57.0827 334.295 57.296 334.295 57.52C334.295 57.8827 334.183 58.176 333.959 58.4C333.746 58.6133 333.458 58.72 333.095 58.72C333.01 58.72 332.924 58.72 332.839 58.72C332.764 58.7093 332.7 58.6987 332.647 58.688C332.572 58.6773 332.508 58.6613 332.455 58.64V56.24C332.391 56.2187 332.316 56.192 332.231 56.16C332.156 56.1387 332.071 56.1227 331.975 56.112C331.879 56.0907 331.772 56.08 331.655 56.08ZM338.219 60C338.582 60 338.902 59.9947 339.179 59.984C339.457 59.9627 339.691 59.9413 339.883 59.92C340.107 59.8987 340.299 59.872 340.459 59.84C340.481 59.7333 340.507 59.616 340.539 59.488C340.561 59.3707 340.577 59.2427 340.587 59.104C340.609 58.9547 340.619 58.8 340.619 58.64C340.619 58.16 340.582 57.76 340.507 57.44C340.433 57.1093 340.337 56.8427 340.219 56.64C340.113 56.4373 339.985 56.2933 339.835 56.208C339.697 56.1227 339.558 56.08 339.419 56.08C339.281 56.08 339.137 56.1333 338.987 56.24C338.849 56.336 338.721 56.528 338.603 56.816C338.497 57.0933 338.406 57.488 338.331 58C338.257 58.512 338.219 59.1787 338.219 60ZM339.819 64.24C338.454 64.24 337.393 63.8667 336.635 63.12C335.878 62.3627 335.499 61.3227 335.499 60C335.499 59.3387 335.595 58.7467 335.787 58.224C335.979 57.7013 336.246 57.2587 336.587 56.896C336.929 56.5227 337.339 56.24 337.819 56.048C338.31 55.856 338.843 55.76 339.419 55.76C340.017 55.76 340.55 55.8453 341.019 56.016C341.499 56.1867 341.905 56.416 342.235 56.704C342.566 56.992 342.817 57.3333 342.987 57.728C343.169 58.112 343.259 58.5227 343.259 58.96C343.259 59.1093 343.249 59.2427 343.227 59.36C343.217 59.4667 343.201 59.5627 343.179 59.648C343.147 59.7547 343.121 59.8453 343.099 59.92C342.63 60.016 342.134 60.096 341.611 60.16C341.163 60.224 340.646 60.2827 340.059 60.336C339.473 60.3787 338.859 60.4 338.219 60.4C338.219 61.0613 338.267 61.616 338.363 62.064C338.459 62.5013 338.593 62.8533 338.763 63.12C338.934 63.376 339.137 63.5627 339.371 63.68C339.606 63.7867 339.862 63.84 340.139 63.84C340.459 63.84 340.758 63.7813 341.035 63.664C341.323 63.5467 341.569 63.392 341.771 63.2C341.985 62.9973 342.15 62.7733 342.267 62.528C342.395 62.272 342.459 62.016 342.459 61.76H342.859C342.859 62.08 342.785 62.3893 342.635 62.688C342.497 62.9867 342.294 63.2533 342.027 63.488C341.761 63.712 341.441 63.8933 341.067 64.032C340.694 64.1707 340.278 64.24 339.819 64.24Z" fill="url(#paint0_linear_1_4)"/>
<defs>
<linearGradient id="paint0_linear_1_4" x1="-42" y1="30.4286" x2="476.5" y2="30.4286" gradientUnits="userSpaceOnUse">
<stop stop-color="#00A1FF"/>
<stop offset="0.828755" stop-color="#00FF8F" stop-opacity="0.97"/>
<stop offset="1" stop-opacity="0"/>
</linearGradient>
</defs>
</svg>
